<svg width="14" height="14" viewBox="0 0 14 14" fill="none" xmlns="http://www.w3.org/2000/svg">
<path d="M11.0833 1.16667H10.5V0.583333C10.5 0.261333 10.2387 0 9.91667 0C9.59467 0 9.33333 0.261333 9.33333 0.583333V1.16667H4.66667V0.583333C4.66667 0.261333 4.40533 0 4.08333 0C3.76133 0 3.5 0.261333 3.5 0.583333V1.16667H2.91667C1.30842 1.16667 0 2.47508 0 4.08333V11.0833C0 12.6916 1.30842 14 2.91667 14H11.0833C12.6916 14 14 12.6916 14 11.0833V4.08333C14 2.47508 12.6916 1.16667 11.0833 1.16667ZM2.91667 2.33333H11.0833C12.0482 2.33333 12.8333 3.1185 12.8333 4.08333V4.66667H1.16667V4.08333C1.16667 3.1185 1.95183 2.33333 2.91667 2.33333ZM11.0833 12.8333H2.91667C1.95183 12.8333 1.16667 12.0482 1.16667 11.0833V5.83333H12.8333V11.0833C12.8333 12.0482 12.0482 12.8333 11.0833 12.8333ZM9.33333 9.33333C9.33333 9.65533 9.072 9.91667 8.75 9.91667H5.25C4.928 9.91667 4.66667 9.65533 4.66667 9.33333C4.66667 9.01133 4.928 8.75 5.25 8.75H8.75C9.072 8.75 9.33333 9.01133 9.33333 9.33333Z" fill="#3D4953"/>
</svg>
